# xmcd
#
# Track frame offsets:
#	150
#	81852
#	118875
#	137427
#	191427
#
# Disc length: 3437 seconds
#
# Revision: 1
# Processed by: cddbd v1.5.1PL2 Copyright (c) Steve Scherf et al.
# Submitted via: EasyCDDAExtractor 9.0.0.1
#
DISCID=3c0d6b05
DTITLE=Rainbow - Porte De Pantin Pavillon Paris 27-10-77 Disc 2
DYEAR=1977
DGENRE=Hard Rock
TTITLE0=Man On The Silver Mountain
TTITLE1=Still I'm Sad
TTITLE2=Drum Solo 
TTITLE3=Still I'm Sad
TTITLE4=Do You Close Your Eyes
EXTD=
EXTT0=
EXTT1=
EXTT2=
EXTT3=
EXTT4=
PLAYORDER=
